<?xml version="1.0" encoding="UTF-8"?>
<!DOCTYPE svg PUBLIC "-//W3C//DTD SVG 1.1//EN" "http://www.w3.org/Graphics/SVG/1.1/DTD/svg11.dtd">
<svg xmlns="http://www.w3.org/2000/svg" version="1.1" width="72px" height="72px" style="shape-rendering:geometricPrecision; text-rendering:geometricPrecision; image-rendering:optimizeQuality; fill-rule:evenodd; clip-rule:evenodd" xmlns:xlink="http://www.w3.org/1999/xlink">
<g><path style="opacity:1" fill="#2a62eb" d="M 64.5,10.5 C 64.6666,27.5033 64.4999,44.5033 64,61.5C 63.1667,62.3333 62.3333,63.1667 61.5,64C 44.1667,64.6667 26.8333,64.6667 9.5,64C 8.66667,63.1667 7.83333,62.3333 7,61.5C 6.50006,44.5033 6.3334,27.5033 6.5,10.5C 6.94425,8.88682 7.94425,7.72015 9.5,7C 26.8333,6.33333 44.1667,6.33333 61.5,7C 63.4257,7.42244 64.4257,8.5891 64.5,10.5 Z"/></g>
<g><path style="opacity:0.167" fill="#1b2340" d="M 6.5,10.5 C 6.3334,27.5033 6.50006,44.5033 7,61.5C 7.83333,62.3333 8.66667,63.1667 9.5,64C 26.8333,64.6667 44.1667,64.6667 61.5,64C 62.3333,63.1667 63.1667,62.3333 64,61.5C 64.4999,44.5033 64.6666,27.5033 64.5,10.5C 65.2216,10.0825 65.7216,9.4158 66,8.5C 66.6667,26.5 66.6667,44.5 66,62.5C 64.7727,64.7261 62.9393,66.2261 60.5,67C 43.8333,67.6667 27.1667,67.6667 10.5,67C 8.06068,66.2261 6.22734,64.7261 5,62.5C 4.33333,44.5 4.33333,26.5 5,8.5C 5.27842,9.4158 5.77842,10.0825 6.5,10.5 Z"/></g>
<g><path style="opacity:1" fill="#4b79f9" d="M 51.5,28.5 C 50.7822,30.1368 50.6155,31.8034 51,33.5C 53.3116,36.646 55.8116,39.646 58.5,42.5C 58.3333,42.8333 58.1667,43.1667 58,43.5C 55.3333,40.8333 52.6667,38.1667 50,35.5C 49.8255,40.3514 49.3255,45.0181 48.5,49.5C 48.6659,44.4889 48.4993,39.4889 48,34.5C 45.7607,31.038 42.594,29.7046 38.5,30.5C 39.4245,26.1157 38.0912,22.7824 34.5,20.5C 31.0381,19.5184 27.3714,19.185 23.5,19.5C 23.7955,26.5878 23.4621,33.5878 22.5,40.5C 21.7701,41.7124 20.7701,42.7124 19.5,43.5C 20.325,44.3857 21.325,44.719 22.5,44.5C 21.9245,47.5715 23.0912,49.5715 26,50.5C 27.0299,50.1639 27.5299,49.4972 27.5,48.5C 28.8284,49.9097 28.4951,51.0764 26.5,52C 28.8333,54.3333 31.1667,56.6667 33.5,59C 23.5677,58.0828 16.7344,52.9161 13,43.5C 10.5216,20.645 20.6883,10.4784 43.5,13C 52.9494,16.7608 58.1161,23.5942 59,33.5C 57,31.5 55,29.5 53,27.5C 52.6174,28.056 52.1174,28.3893 51.5,28.5 Z"/></g>
<g><path style="opacity:1" fill="#b7e3f4" d="M 22.5,40.5 C 23.1667,40.8333 23.8333,41.1667 24.5,41.5C 24.9528,42.4584 25.6195,43.2917 26.5,44C 23.8165,46.1216 24.1499,47.6216 27.5,48.5C 27.5299,49.4972 27.0299,50.1639 26,50.5C 23.0912,49.5715 21.9245,47.5715 22.5,44.5C 21.325,44.719 20.325,44.3857 19.5,43.5C 20.7701,42.7124 21.7701,41.7124 22.5,40.5 Z"/></g>
<g><path style="opacity:1" fill="#f8af0d" d="M 38.5,30.5 C 42.594,29.7046 45.7607,31.038 48,34.5C 48.4993,39.4889 48.6659,44.4889 48.5,49.5C 46.1667,49.5 43.8333,49.5 41.5,49.5C 41.5,43.5 41.5,37.5 41.5,31.5C 40.209,31.7373 39.209,31.404 38.5,30.5 Z"/></g>
<g><path style="opacity:1" fill="#fcd208" d="M 38.5,30.5 C 39.209,31.404 40.209,31.7373 41.5,31.5C 41.5,37.5 41.5,43.5 41.5,49.5C 39.1667,49.5 36.8333,49.5 34.5,49.5C 34.5,45.8333 34.5,42.1667 34.5,38.5C 34.5,35.8333 34.5,33.1667 34.5,30.5C 35.8333,30.5 37.1667,30.5 38.5,30.5 Z"/></g>
<g><path style="opacity:1" fill="#a8e6ee" d="M 51.5,28.5 C 48.9407,31.4662 46.9407,31.1328 45.5,27.5C 46.1667,26.8333 46.8333,26.1667 47.5,25.5C 46.1667,24.1667 44.8333,22.8333 43.5,21.5C 44.79,20.5923 46.1233,20.759 47.5,22C 49.0082,24.0937 50.3415,26.2604 51.5,28.5 Z"/></g>
<g><path style="opacity:1" fill="#f2f4f8" d="M 34.5,20.5 C 38.0912,22.7824 39.4245,26.1157 38.5,30.5C 37.1667,30.5 35.8333,30.5 34.5,30.5C 34.5,33.1667 34.5,35.8333 34.5,38.5C 31.1667,38.5 27.8333,38.5 24.5,38.5C 24.5,32.5 24.5,26.5 24.5,20.5C 27.8333,20.5 31.1667,20.5 34.5,20.5 Z"/></g>
<g><path style="opacity:1" fill="#89a6f6" d="M 34.5,20.5 C 31.1667,20.5 27.8333,20.5 24.5,20.5C 24.5,26.5 24.5,32.5 24.5,38.5C 27.8333,38.5 31.1667,38.5 34.5,38.5C 34.5,42.1667 34.5,45.8333 34.5,49.5C 33.5206,46.3752 33.1872,43.0419 33.5,39.5C 29.9878,38.9455 26.9878,39.6122 24.5,41.5C 23.8333,41.1667 23.1667,40.8333 22.5,40.5C 23.4621,33.5878 23.7955,26.5878 23.5,19.5C 27.3714,19.185 31.0381,19.5184 34.5,20.5 Z"/></g>
</svg>
